<?xml version="1.0" encoding="UTF-8"?>
<svg id="Layer_2" data-name="Layer 2" xmlns="http://www.w3.org/2000/svg" viewBox="0 0 1925.63 841.18">
  <defs>
    <style>
      .cls-1 {
        fill: #3a0ca3;
        stroke-width: 0px;
      }
    </style>
  </defs>
  <g id="Layer_1-2" data-name="Layer 1">
    <g id="Paint_1" data-name="Paint 1">
      <path class="cls-1" d="M0,216.38c12.34.64,24.54,1.75,36.53,5.34,18.11,5.41,33.24,14.43,44.05,30.48,8.17,12.12,12.42,25.48,13.93,39.61,2.21,20.85.85,41.66-3.3,62.25-3.07,15.19-5.39,30.57-9.13,45.59-6.77,27.11-13.1,54.18-9.65,82.43,1.6,13.14,6.89,24.24,18.5,31.57,9.1,5.74,19.1,6.27,29.36,4.75,2.6-.39,5.18-1.26,7.63-2.27,3.16-1.3,4.32-4.02,2.72-6.96-4.15-7.59-1.51-14.97,1.57-21.54,2.26-4.82,6.57-9.52,11.18-12.21,7.13-4.17,11.18-8.53,10.34-16.89-1.48-14.75-3.01-29.52-5.38-44.15-6.04-37.31-10.63-74.57-5.26-112.48,2.22-15.68,5.66-30.79,12.8-44.9,2.83-5.6,6.13-11.18,10.24-15.87,11.44-13.01,25.01-21.76,42.76-25.53,26.91-5.71,48.92,1.87,65.44,23.29,13.44,17.44,19.59,38.11,24.39,59.11,4.84,21.17,7.09,42.74,8.14,64.43,2.47,51.15-.14,102.12-6.58,152.85-3.88,30.56-8.95,60.99-14.33,91.33-4.18,23.6-9.59,46.98-14.61,70.43-6.52,30.44-11.27,61.07-9.19,92.31,1,15.04,3.57,29.98,11.71,43.01,3.71,5.94,8.83,11.19,14.04,15.96,11,10.09,25.17,11.72,39.17,12.74,13.73,1,25.58-4.24,35.16-13.91,10.74-10.82,16.34-24.59,20.16-39.01,5.76-21.76,7.03-44.06,7.08-66.48.07-29.64-4.21-58.84-8.21-88.1-3.07-22.47-6.84-44.95-8.15-67.54-2.08-35.79-3.06-71.68-3.14-107.54-.05-22.13,1.74-44.35,4.04-66.39,1.78-17.02,5.62-33.83,8.58-50.73,3.13-17.86,8.88-34.9,17.39-50.84,7.88-14.78,17.64-27.15,35.52-32.07,14.53-4,27.99,4.97,31.64,17.55,2.83,9.75,3.9,19.59,3.04,29.67-1.15,13.46-2.58,26.9-3.37,40.38-1.09,18.63-2.15,37.28-2.25,55.92-.03,6.62,1.58,13.88,4.58,19.75,5.08,9.96,12.74,17.5,24.64,20.22,9.33,2.13,17.5.34,24.51-5.07,12.64-9.76,17.15-23.48,14-38.75-3.49-16.93-8.4-33.57-13-50.25-3.67-13.3-5.84-26.74-5.09-40.53.62-11.55,4.91-20.63,16.46-25.75,7.02-3.11,13.83-2.65,21.01-2.6,24.94.19,36.84,15.87,42.44,34.18,2.82,9.23,3.25,19.45,3.32,29.22.17,26.47-5.2,52.36-9.51,78.34-3.09,18.57-7.27,36.99-9.73,55.64-2.36,17.82-4.05,35.84-4.22,53.79-.09,9.18,2.62,18.89,6.18,27.49,4.69,11.32,15.2,16.52,26.89,18.51,13.56,2.3,26.83,1.36,37.89-7.98,10.3-8.7,14.43-20.78,15.36-33.69,1.38-19.21.31-38.31-4.57-57.12-2.51-9.66-4.81-19.48-5.97-29.37-2.68-22.85-5.34-45.74-6.66-68.69-1.79-31.02-1.47-62.12,3.55-92.88,2.71-16.58,6.03-33.18,14.35-48.17,4.85-8.73,10.48-17.34,20.43-20.3,17.66-5.26,35.84.71,46.89,15.39,5.24,6.97,8.89,15.16,13.06,22.91,2.76,5.14,4.85,10.63,7.75,15.68,5.43,9.48,11.4,18.22,23.51,20.53,8.71,1.66,20.03-1.81,25.58-8.55,9.92-12.04,12.39-27.14,16.98-41.26,3.25-10.01,6.21-19.94,11.93-28.89,9.69-15.17,30.61-18.41,43.95-6.36,8.63,7.8,13.4,18.24,16.65,29.06,5.21,17.37,6.57,35.32,6.05,53.44-.96,33.87-9.02,66.24-20.23,97.99-3.14,8.89-3.63,18.09-.58,27.01,4.49,13.14,14.1,20.1,27.83,20.39,14.4.31,25.73-5.28,33.33-18.03,4.75-7.98,4.92-16.57,4.21-25.22-2.03-24.76-4.88-49.46-6.49-74.24-1.22-18.79-1.52-37.67,3.28-56.22,3.78-14.61,10.2-26.97,26.93-28.94,13.04-1.54,26.51-1.14,33.96,12.17,3.16,5.66,4.55,12.96,4.63,19.54.11,9.93-1.96,19.87-2.44,29.84-.23,4.86.01,10.22,1.84,14.6,3.34,8,11.32,10.7,20.31,8.19,7.47-2.08,12.76-9.56,12.47-17.95-.14-3.83-.64-7.65-1.02-11.47-1.63-16.43-3.52-32.82-1.51-49.4.85-7.03,3.66-12.84,8.35-17.72,8.12-8.46,22.06-3.74,27.11,8.89,3.77,9.41,7.2,19,11.66,28.08,6.12,12.43,18.71,14.18,28.28,4.24,3.32-3.45,6.02-7.54,8.69-11.54,6.07-9.11,11.54-18.66,18.03-27.45,7.13-9.66,17-8.28,21.75,2.68,2.31,5.33,4.81,10.85,5.63,16.52,2.5,17.14,5.4,34.34,6.01,51.6,1.24,34.83,1.51,69.72-4.79,104.28-3.32,18.2-5.63,36.58-9.15,54.73-4.04,20.8-5.58,41.73-3.66,62.73,1.43,15.69,8.85,26.73,25.1,29.23,4.51.69,9.31.31,13.89-.29,11.9-1.56,19.32-8.87,22.34-20.03,1.81-6.68,2.85-13.87,2.54-20.75-.63-13.97-1.85-27.97-3.86-41.8-2.15-14.83-6.19-29.4-8.15-44.25-4.72-35.78-6.92-71.69-4.43-107.84,1.64-23.86,4.36-47.45,13.26-69.82,3.94-9.9,8.94-19.2,19.8-23.87,11-4.74,25.57-.25,31.76,10.01,5,8.3,5.93,17.48,5.59,26.55-.65,17.49-2.36,34.93-3.65,52.4-.65,8.81-1.84,17.61-1.87,26.42-.03,11.46,6.32,20.82,16.62,23.44,9.72,2.47,17.51-2.58,23.32-10.02,6.34-8.13,7.42-17.42,4.81-27.43-6.87-26.29-6.57-52.35,2.96-78.1,6.1-16.46,14.94-21.96,31.89-22.28,15.23-.29,26.92,6.24,37.92,15.33,5.47,4.52,11.52,6.99,18.75,7.13,12.79.24,22.98-6.19,33.23-12.43,10.26-6.24,20.91-10.94,33.26-10.53,5.06.17,9.73.65,14.04,4.08,6.28,4.98,8.62,11.82,10.03,19.02,3.72,18.86,2.83,37.92.83,56.85-1.73,16.39-4.45,32.68-7.1,48.95-1.77,10.84-3.64,21.72-6.46,32.32-3.68,13.83-6.2,27.68-4.79,41.98,1.56,15.79,13.49,32.59,33.21,32.33,7.46-.1,14.43-1.21,21.08-5.05,11.77-6.79,18.28-17.26,21.61-29.86,3.92-14.84,1.77-29.96.25-44.83-3.09-30.19-7.24-60.27-6.87-90.72.15-11.97,1.6-24.01,7.12-34.52,10.32-19.67,24.9-26.45,46.44-25.37,9.54.48,17.12,5.59,23.24,13.06,10.59,12.93,15.78,28.42,18.8,44.18,3.79,19.76,6.81,39.95,7.23,60.02.8,38.52.51,77.12-1.17,115.61-1.48,33.8-5.17,67.52-8.44,101.22-3.17,32.7-7.18,65.32-10.57,98.01-3.08,29.69-7.1,59.37-4.62,89.31,1.61,19.39,3.04,39.09,14.22,55.9,4.3,6.47,9.96,12.7,16.39,16.93,10.04,6.61,22.05,6.83,33.88,6.37,10.13-.4,19.76-3.27,27.78-8.93,14.01-9.88,21.2-24.79,24.29-41.11,2.28-12.05,2.62-24.52,3.11-36.82,1.19-29.82-4.17-59.18-7.17-88.68-2.98-29.36-7.06-58.6-10.73-87.88-3.66-29.11-7.6-58.19-11.08-87.33-3.64-30.47-7.47-60.93-10.15-91.49-3.37-38.38-6.25-76.84-2.76-115.43,1.54-17.04,3.86-33.82,11.79-49.27,6.16-12,14.79-21.11,29.2-22.18,5.47-.41,11.05-.34,16.5.28,13.22,1.48,24.71,6.33,30.74,19.21,2.95,6.29,5.11,12.97,7.42,19.54,2.2,6.23,3.83,12.68,6.26,18.82,4.41,11.16,13.38,16.96,24.85,18.14,7.4.76,15.12.52,22.43-.75,6.94-1.21,12.94-4.98,16.22-12.03,2.6-5.58,5.41-11.13,8.71-16.31,4.22-6.61,9.49-12.06,16.73-15.92,10.12-5.39,21.01-6.17,31.93-7.32,6.97-.73,7.01-.56,7.01-7.75,0-69.62,0-139.24,0-208.86.33.17.95.32.96.5.08,1.33.04,2.67.04,4M1207.48,728.01c-.99-21.48-4.11-40.92-10.26-59.66-2.92-8.91-7.61-17.37-12.43-25.49-3.13-5.27-9.27-5.17-12.98-.23-4.06,5.41-8.1,11.06-10.84,17.19-9.06,20.28-13.73,41.76-14.77,63.89-.65,13.82-.59,27.75,6.97,40.28,4.65,7.71,10.8,12.92,20.29,13.27,10.5.39,18.8-3.41,24.59-12.33,7.67-11.8,9.07-25.08,9.42-36.93ZM85.38,658.94c.74,3.37,1.4,10.29,3.89,16.46,2.03,5.02,5.5,10.08,9.68,13.47,8.03,6.52,18,7.43,28.03,6.14,13.88-1.79,18.76-7.16,22.65-19.48,5.6-17.73,3.01-35.83-1.8-53.68-3.36-12.47-9.54-23.19-16.91-33.62-6.72-9.51-12.82-10.5-20.1-1.5-16.22,20.02-23.44,43.36-25.44,72.21ZM801.48,601.08c6.75.2,13.34-.97,18.85-6.37,8.84-8.66,10.96-19.71,9.34-30.86-2.38-16.4-5.91-32.72-10.33-48.69-1.81-6.55-6.83-12.41-11.14-18.01-3.23-4.2-7.91-4.8-12-1.49-4.44,3.59-8.89,7.78-11.72,12.65-10.57,18.16-15.92,38-16.65,59.01-.6,17.56,15.04,35.1,33.66,33.77Z"/>
      <path class="cls-1" d="M1924.62,0c0,69.62,0,139.24,0,208.86,0,7.19-.03,7.02-7.01,7.75-10.91,1.15-21.81,1.93-31.93,7.32-7.24,3.86-12.52,9.31-16.73,15.92-3.31,5.18-6.12,10.73-8.71,16.31-3.28,7.05-9.29,10.82-16.22,12.03-7.32,1.28-15.04,1.51-22.43.75-11.47-1.18-20.44-6.98-24.85-18.14-2.43-6.14-4.06-12.58-6.26-18.82-2.32-6.57-4.48-13.24-7.42-19.54-6.03-12.88-17.52-17.73-30.74-19.21-5.45-.61-11.03-.68-16.5-.28-14.41,1.07-23.04,10.17-29.2,22.18-7.93,15.44-10.25,32.23-11.79,49.27-3.49,38.6-.62,77.05,2.76,115.43,2.68,30.56,6.51,61.02,10.15,91.49,3.48,29.13,7.43,58.21,11.08,87.33,3.68,29.28,7.75,58.53,10.73,87.88,3,29.5,8.36,58.86,7.17,88.68-.49,12.31-.84,24.78-3.11,36.82-3.09,16.33-10.28,31.23-24.29,41.11-8.03,5.66-17.65,8.53-27.78,8.93-11.83.46-23.84.24-33.88-6.37-6.43-4.23-12.1-10.46-16.39-16.93-11.17-16.81-12.61-36.52-14.22-55.9-2.48-29.95,1.54-59.63,4.62-89.31,3.39-32.68,7.4-65.3,10.57-98.01,3.27-33.7,6.97-67.42,8.44-101.22,1.68-38.49,1.97-77.09,1.17-115.61-.42-20.07-3.44-40.26-7.23-60.02-3.02-15.76-8.21-31.25-18.8-44.18-6.11-7.46-13.69-12.58-23.24-13.06-21.54-1.09-36.12,5.7-46.44,25.37-5.52,10.52-6.97,22.55-7.12,34.52-.37,30.44,3.77,60.53,6.87,90.72,1.52,14.87,3.67,29.99-.25,44.83-3.33,12.6-9.84,23.07-21.61,29.86-6.65,3.84-13.62,4.94-21.08,5.05-19.72.27-31.66-16.54-33.21-32.33-1.41-14.3,1.11-28.15,4.79-41.98,2.82-10.6,4.69-21.48,6.46-32.32,2.65-16.27,5.37-32.57,7.1-48.95,2-18.92,2.89-37.99-.83-56.85-1.42-7.19-3.76-14.03-10.03-19.02-4.32-3.43-8.99-3.91-14.04-4.08-12.35-.4-22.99,4.29-33.26,10.53-10.25,6.23-20.44,12.66-33.23,12.43-7.23-.13-13.28-2.61-18.75-7.13-11-9.09-22.69-15.62-37.92-15.33-16.95.33-25.8,5.82-31.89,22.28-9.53,25.75-9.83,51.81-2.96,78.1,2.61,10.01,1.54,19.3-4.81,27.43-5.81,7.44-13.6,12.49-23.32,10.02-10.3-2.62-16.65-11.99-16.62-23.44.02-8.81,1.22-17.62,1.87-26.42,1.29-17.46,3-34.91,3.65-52.4.34-9.07-.59-18.25-5.59-26.55-6.19-10.27-20.76-14.75-31.76-10.01-10.86,4.67-15.86,13.97-19.8,23.87-8.89,22.37-11.62,45.96-13.26,69.82-2.48,36.14-.29,72.06,4.43,107.84,1.96,14.85,6,29.42,8.15,44.25,2,13.84,3.23,27.83,3.86,41.8.31,6.88-.74,14.07-2.54,20.75-3.02,11.17-10.44,18.47-22.34,20.03-4.57.6-9.37.99-13.89.29-16.26-2.49-23.67-13.54-25.1-29.23-1.92-21-.37-41.93,3.66-62.73,3.52-18.15,5.83-36.54,9.15-54.73,6.31-34.56,6.03-69.45,4.79-104.28-.61-17.25-3.51-34.46-6.01-51.6-.83-5.67-3.32-11.18-5.63-16.52-4.75-10.96-14.62-12.34-21.75-2.68-6.49,8.79-11.96,18.34-18.03,27.45-2.67,4-5.37,8.1-8.69,11.54-9.57,9.94-22.16,8.2-28.28-4.24-4.47-9.08-7.9-18.67-11.66-28.08-5.05-12.63-18.99-17.35-27.11-8.89-4.69,4.88-7.51,10.69-8.35,17.72-2,16.59-.12,32.97,1.51,49.4.38,3.82.89,7.64,1.02,11.47.3,8.39-4.99,15.87-12.47,17.95-8.99,2.5-16.97-.19-20.31-8.19-1.83-4.38-2.07-9.74-1.84-14.6.48-9.97,2.55-19.91,2.44-29.84-.08-6.58-1.46-13.88-4.63-19.54-7.45-13.31-20.92-13.71-33.96-12.17-16.73,1.97-23.15,14.32-26.93,28.94-4.8,18.55-4.5,37.43-3.28,56.22,1.62,24.78,4.47,49.48,6.49,74.24.71,8.65.54,17.24-4.21,25.22-7.59,12.75-18.92,18.34-33.33,18.03-13.73-.3-23.34-7.26-27.83-20.39-3.05-8.92-2.56-18.12.58-27.01,11.21-31.75,19.27-64.12,20.23-97.99.51-18.13-.84-36.08-6.05-53.44-3.24-10.81-8.02-21.26-16.65-29.06-13.34-12.05-34.26-8.81-43.95,6.36-5.72,8.95-8.68,18.88-11.93,28.89-4.59,14.11-7.06,29.22-16.98,41.26-5.55,6.74-16.87,10.21-25.58,8.55-12.1-2.31-18.07-11.05-23.51-20.53-2.89-5.05-4.99-10.55-7.75-15.68-4.16-7.75-7.81-15.94-13.06-22.91-11.05-14.68-29.22-20.65-46.89-15.39-9.95,2.96-15.58,11.57-20.43,20.3-8.32,14.99-11.64,31.6-14.35,48.17-5.02,30.76-5.34,61.86-3.55,92.88,1.32,22.95,3.98,45.85,6.66,68.69,1.16,9.89,3.46,19.71,5.97,29.37,4.88,18.81,5.95,37.92,4.57,57.12-.93,12.91-5.06,24.99-15.36,33.69-11.05,9.34-24.33,10.28-37.89,7.98-11.69-1.99-22.2-7.19-26.89-18.51-3.56-8.6-6.27-18.31-6.18-27.49.17-17.95,1.86-35.97,4.22-53.79,2.47-18.65,6.65-37.06,9.73-55.64,4.31-25.97,9.68-51.87,9.51-78.34-.06-9.78-.49-19.99-3.32-29.22-5.6-18.3-17.51-33.99-42.44-34.18-7.18-.05-13.99-.51-21.01,2.6-11.56,5.12-15.84,14.2-16.46,25.75-.74,13.78,1.43,27.23,5.09,40.53,4.6,16.68,9.51,33.33,13,50.25,3.15,15.26-1.35,28.99-14,38.75-7.02,5.42-15.19,7.21-24.51,5.07-11.9-2.72-19.56-10.27-24.64-20.22-3-5.88-4.61-13.13-4.58-19.75.1-18.65,1.16-37.3,2.25-55.92.79-13.48,2.22-26.92,3.37-40.38.86-10.08-.21-19.92-3.04-29.67-3.65-12.57-17.11-21.54-31.64-17.55-17.87,4.92-27.63,17.28-35.52,32.07-8.5,15.94-14.26,32.99-17.39,50.84-2.96,16.9-6.8,33.71-8.58,50.73-2.3,22.04-4.09,44.25-4.04,66.39.07,35.85,1.06,71.75,3.14,107.54,1.31,22.6,5.07,45.07,8.15,67.54,4,29.26,8.29,58.46,8.21,88.1-.05,22.43-1.31,44.72-7.08,66.48-3.82,14.42-9.43,28.19-20.16,39.01-9.58,9.66-21.43,14.91-35.16,13.91-14-1.02-28.17-2.66-39.17-12.74-5.21-4.77-10.32-10.02-14.04-15.96-8.15-13.02-10.71-27.97-11.71-43.01-2.08-31.24,2.67-61.87,9.19-92.31,5.02-23.44,10.42-46.83,14.61-70.43,5.38-30.34,10.45-60.77,14.33-91.33,6.44-50.72,9.05-101.7,6.58-152.85-1.05-21.69-3.3-43.26-8.14-64.43-4.8-21.01-10.95-41.68-24.39-59.11-16.51-21.42-38.53-29-65.44-23.29-17.75,3.77-31.32,12.52-42.76,25.53-4.12,4.68-7.41,10.27-10.24,15.87-7.14,14.1-10.58,29.21-12.8,44.9-5.37,37.91-.78,75.17,5.26,112.48,2.37,14.62,3.9,29.4,5.38,44.15.84,8.36-3.21,12.72-10.34,16.89-4.6,2.69-8.91,7.39-11.18,12.21-3.09,6.57-5.72,13.95-1.57,21.54,1.61,2.94.45,5.66-2.72,6.96-2.45,1-5.03,1.88-7.63,2.27-10.26,1.52-20.25,1-29.36-4.75-11.61-7.33-16.9-18.42-18.5-31.57-3.45-28.25,2.89-55.32,9.65-82.43,3.75-15.02,6.07-30.39,9.13-45.59,4.15-20.6,5.52-41.4,3.3-62.25-1.5-14.13-5.76-27.49-13.93-39.61-10.81-16.05-25.93-25.06-44.05-30.48-11.99-3.58-24.19-4.7-36.53-5.34V0h1924.62Z"/>
      <path class="cls-1" d="M1207.48,728.01c-.36,11.85-1.76,25.13-9.42,36.93-5.8,8.92-14.09,12.72-24.59,12.33-9.49-.35-15.63-5.56-20.29-13.27-7.56-12.54-7.62-26.46-6.97-40.28,1.04-22.13,5.71-43.61,14.77-63.89,2.74-6.13,6.78-11.78,10.84-17.19,3.71-4.95,9.85-5.04,12.98.23,4.82,8.11,9.5,16.58,12.43,25.49,6.15,18.74,9.27,38.18,10.26,59.66Z"/>
      <path class="cls-1" d="M85.38,658.94c2-28.85,9.23-52.2,25.44-72.21,7.28-8.99,13.38-8.01,20.1,1.5,7.37,10.44,13.55,21.16,16.91,33.62,4.82,17.85,7.4,35.95,1.8,53.68-3.89,12.32-8.77,17.69-22.65,19.48-10.03,1.29-20,.38-28.03-6.14-4.18-3.39-7.65-8.45-9.68-13.47-2.5-6.18-3.15-13.09-3.89-16.46Z"/>
      <path class="cls-1" d="M801.48,601.08c-18.62,1.32-34.26-16.21-33.66-33.77.72-21,6.08-40.84,16.65-59.01,2.83-4.87,7.28-9.06,11.72-12.65,4.09-3.3,8.77-2.71,12,1.49,4.31,5.6,9.33,11.46,11.14,18.01,4.42,15.97,7.95,32.29,10.33,48.69,1.62,11.15-.5,22.2-9.34,30.86-5.51,5.4-12.1,6.57-18.85,6.37Z"/>
    </g>
  </g>
</svg>