<?xml version="1.0" encoding="UTF-8"?>
<svg id="Layer_2" data-name="Layer 2" xmlns="http://www.w3.org/2000/svg" viewBox="0 0 1924.62 880.36">
  <defs>
    <style>
      .cls-1 {
        fill: #3a0ca3;
        stroke-width: 0px;
      }
    </style>
  </defs>
  <g id="Layer_1-2" data-name="Layer 1">
    <g id="Paint_1" data-name="Paint 1">
      <path class="cls-1" d="M1265.38,346.93c-3.2-4.2-4.97-9.68-4.95-15.75.01-4.22.29-8.44.65-12.66.85,5.57,1.74,11.12,2.6,16.68.6,3.91,1.19,7.82,1.7,11.73Z"/>
      <path class="cls-1" d="M1924.62,0c0,69.62,0,139.24-.01,208.86,0,4.27-.01,5.94-1.48,6.75.01-.5.02-1.03.02-1.61,0-69.74-.01-139.47-.01-209.2,0-1.6.07-3.2.13-4.8h1.35Z"/>
      <path class="cls-1" d="M1923.14,4.8c0,69.73.01,139.46.01,209.2,0,.58-.01,1.11-.02,1.61-1,.55-2.68.7-5.52,1-10.92,1.15-21.81,1.93-31.93,7.32-.15.08-.29.16-.44.25-7.01,3.83-12.16,9.19-16.29,15.67-3.31,5.19-6.12,10.73-8.71,16.31-3.29,7.05-9.29,10.82-16.23,12.03-7.23,1.26-14.85,1.51-22.16.77-.09,0-.18,0-.27-.02-11.47-1.18-20.44-6.98-24.85-18.14-2.43-6.14-4.06-12.58-6.26-18.81-2.32-6.58-4.48-13.25-7.42-19.54-6.03-12.88-17.52-17.73-30.74-19.21-5.45-.62-11.03-.69-16.5-.28-14.41,1.07-23.04,10.17-29.2,22.18-2.03,3.94-3.69,7.97-5.05,12.07-4.01,11.96-5.59,24.51-6.74,37.19-3.49,38.6-.62,77.05,2.75,115.44,2.69,30.55,6.52,61.02,10.16,91.48,3.48,29.14,7.42,58.22,11.08,87.33,3.68,29.28,7.75,58.53,10.74,87.88,2.99,29.51,8.35,58.87,7.16,88.69-.49,12.31-.83,24.78-3.11,36.82-3.09,16.33-10.28,31.24-24.29,41.12-8.03,5.66-17.65,8.53-27.78,8.93-11.83.46-23.84.23-33.88-6.37-6.43-4.23-12.09-10.47-16.39-16.94-11.18-16.81-12.61-36.51-14.22-55.9-2.48-29.95,1.54-59.63,4.62-89.31,3.39-32.69,7.4-65.31,10.57-98.01,3.27-33.7,6.97-67.42,8.44-101.22,1.68-38.49,1.97-77.1,1.17-115.61-.42-20.07-3.44-40.26-7.23-60.03-1.58-8.23-3.75-16.39-6.97-24.15-2.94-7.1-6.77-13.86-11.83-20.03-6.11-7.46-13.69-12.57-23.24-13.05-17.48-.88-30.37,3.42-40.12,15.58.81,7.69,1.54,15.42,1.26,23.13-.18,5.15-.81,10.29-2.16,15.4-3.33,12.6-9.84,23.07-21.61,29.86-6.64,3.84-13.62,4.94-21.08,5.05-19.72.26-31.66-16.54-33.21-32.33-1.41-14.3,1.11-28.15,4.79-41.98.84-3.17,1.6-6.36,2.29-9.57-1.39-2.28-3.18-4.39-5.51-6.24-4.32-3.42-8.99-3.91-14.04-4.07-.45-.02-.91-.02-1.36-.02-11.77-.04-22.01,4.54-31.9,10.55-10.25,6.23-20.43,12.66-33.23,12.43-7.23-.14-13.28-2.61-18.75-7.13-1.55-1.28-3.11-2.51-4.69-3.68-9.67-7.11-20.14-11.9-33.23-11.65-16.96.33-25.8,5.82-31.9,22.28-9.53,25.75-9.82,51.81-2.96,78.1,2.62,10.01,1.54,19.3-4.8,27.43-5.81,7.44-13.6,12.49-23.32,10.02-4.85-1.23-8.82-3.96-11.66-7.7-.51-3.91-1.1-7.82-1.7-11.73-.86-5.56-1.75-11.11-2.6-16.68.39-4.59.88-9.17,1.21-13.76,1.29-17.46,3-34.91,3.65-52.4.29-7.76-.35-15.61-3.68-22.91-.55-1.23-1.19-2.44-1.91-3.64-6.19-10.26-20.76-14.75-31.76-10.01-7.63,3.28-12.36,8.84-15.87,15.3-1.49,2.73-2.75,5.62-3.92,8.57-.9,2.27-1.74,4.54-2.51,6.83,1.96,9.97,4.28,19.9,5.74,29.94,2,13.84,3.23,27.84,3.85,41.81.31,6.88-.73,14.07-2.54,20.74-3.02,11.17-10.44,18.48-22.34,20.04-4.57.6-9.37.98-13.88.29-16.26-2.49-23.67-13.54-25.11-29.23-1.91-21-.37-41.93,3.67-62.73,1.57-8.09,2.9-16.23,4.18-24.37-.05-.37-.11-.73-.16-1.1-.83-5.67-3.32-11.19-5.63-16.52-4.75-10.96-14.62-12.34-21.75-2.68-6.5,8.79-11.96,18.34-18.03,27.45-2.67,4-5.37,8.1-8.69,11.54-9.58,9.95-22.16,8.2-28.28-4.24-4.47-9.07-7.9-18.67-11.67-28.08-5.05-12.63-18.99-17.34-27.11-8.89-4.69,4.89-7.51,10.7-8.35,17.72-2.01,16.59-.12,32.97,1.51,49.4.38,3.82.89,7.64,1.02,11.47.3,8.39-4.99,15.87-12.46,17.95-8.99,2.5-16.97-.19-20.31-8.19-1.83-4.39-2.08-9.74-1.84-14.61.48-9.96,2.55-19.9,2.44-29.84-.08-6.58-1.46-13.88-4.63-19.54-3.44-6.16-8.18-9.56-13.57-11.28-6.25-1.99-13.38-1.72-20.39-.9-16.72,1.97-23.15,14.33-26.93,28.94-4.79,18.55-4.5,37.43-3.27,56.22,1.61,24.79,4.47,49.49,6.49,74.25.71,8.64.54,17.24-4.21,25.21-5.42,9.11-12.74,14.57-21.73,16.82-3.6.91-7.47,1.31-11.59,1.22-13.73-.3-23.34-7.26-27.83-20.4-3.05-8.91-2.56-18.12.58-27.01,11.21-31.75,19.27-64.11,20.23-97.99.51-18.12-.84-36.07-6.05-53.44-3.25-10.81-8.02-21.26-16.65-29.06-13.35-12.05-34.26-8.81-43.95,6.37-5.72,8.94-8.68,18.87-11.93,28.88-4.59,14.12-7.06,29.22-16.98,41.26-3.51,4.27-9.33,7.22-15.35,8.39-3.48.69-7.03.77-10.23.16-12.1-2.31-18.07-11.05-23.5-20.53-2.9-5.05-5-10.55-7.75-15.68-4.16-7.75-7.81-15.95-13.06-22.92-3.39-4.51-7.45-8.19-11.97-10.99-10.19-6.29-22.67-8.04-34.91-4.4-9.95,2.96-15.58,11.58-20.43,20.31-2.58,4.65-4.68,9.46-6.43,14.37.51,2.11,1.04,4.21,1.58,6.3,4.88,18.81,5.96,37.91,4.58,57.12-.93,12.91-5.06,24.99-15.36,33.69-11.05,9.34-24.33,10.28-37.89,7.97-11.68-1.98-22.19-7.19-26.88-18.51-3.56-8.59-6.27-18.3-6.18-27.49.1-10.26.69-20.54,1.63-30.8l-24.35-1.91c-7.17-.05-13.99-.51-21.01,2.6-11.56,5.12-15.84,14.2-16.46,25.75-.74,13.62,1.37,26.93,4.97,40.08.04.15.08.3.12.45,4.6,16.68,9.51,33.32,13,50.25,2.6,12.59-.01,24.14-8.11,33.28-1.71,1.94-3.67,3.76-5.88,5.47-7.02,5.41-15.19,7.2-24.52,5.07-11.9-2.72-19.56-10.27-24.63-20.23-3-5.87-4.62-13.13-4.58-19.75.09-18.64,1.16-37.3,2.25-55.92.79-13.48,2.22-26.93,3.37-40.39.86-10.08-.21-19.91-3.04-29.67-3.65-12.57-17.11-21.54-31.64-17.54-6.8,1.87-16.78,10.49-26.98,21.27-16.58,17.55-33.73,40.82-38.61,49.98-8.5,15.94-14.26,32.99-17.39,50.84-2.96,16.9-6.8,33.71-8.58,50.73-2.3,22.04-4.09,44.26-4.04,66.39.07,35.86,1.06,71.75,3.13,107.54,1.31,22.6,5.08,45.07,8.15,67.54,1.67,12.23,3.4,24.46,4.83,36.71,1.99,17.05,3.42,34.14,3.38,51.39-.05,22.43-1.31,44.72-7.08,66.49-3.82,14.42-9.42,28.18-20.16,39.01-9.58,9.66-21.43,14.9-35.16,13.9-14-1.02-28.17-2.66-39.17-12.74-5.21-4.78-10.33-10.03-14.04-15.96-8.15-13.03-10.71-27.97-11.72-43.01-2.07-31.25,2.67-61.88,9.19-92.31,5.02-23.45,10.43-46.83,14.61-70.43,5.38-30.34,10.45-60.77,14.33-91.33,6.44-50.72,9.05-101.7,6.58-152.85-1.04-21.69-3.3-43.26-8.14-64.43-4.8-21.01-10.94-41.68-24.39-59.11-8.6-11.16-10.54-29.21-14.22-43.12-3.39-12.79-8.25-22.09-21.14-19.35-17.75,3.76-31.32,12.52-42.76,25.53-4.12,4.68-7.41,10.27-10.24,15.86-4.86,9.59-8,19.65-10.21,30.03-1.05,4.89-1.88,9.85-2.59,14.87-5.37,37.91-.78,75.17,5.26,112.48,2.37,14.62,3.9,29.4,5.38,44.15.84,8.35-3.21,12.71-10.34,16.89-4.6,2.69-8.91,7.39-11.18,12.21-3.08,6.57-5.72,13.94-1.57,21.54,1.61,2.93.45,5.65-2.72,6.95-2.44,1.01-5.02,1.89-7.62,2.27-10.26,1.52-20.26,1-29.36-4.75-11.61-7.32-16.9-18.42-18.5-31.56-3.45-28.25,2.89-55.32,9.65-82.43,3.75-15.02,6.07-30.39,9.14-45.59,4.15-20.59,5.51-41.4,3.3-62.25-1.5-14.13-5.76-27.49-13.93-39.61-7.05-10.46-15.92-17.93-26.27-23.37-5.52-2.9-11.47-5.22-17.77-7.11-11.99-3.58-24.19-4.7-36.53-5.33V0h1923.27c-.06,1.6-.13,3.2-.13,4.8Z"/>
      <path class="cls-1" d="M85.38,658.94c2-28.85,9.23-52.2,25.44-72.21,7.28-8.99,13.38-8.01,20.1,1.5,7.37,10.44,13.55,21.16,16.91,33.62,4.82,17.85,7.4,35.95,1.8,53.68-3.89,12.32-8.77,17.69-22.65,19.48-10.03,1.29-20,.38-28.03-6.14-4.18-3.39-7.65-8.45-9.68-13.47-2.5-6.18-3.15-13.09-3.89-16.46Z"/>
      <path class="cls-1" d="M1401.07,377.26c-18.62,1.32-34.26-16.21-33.66-33.77.72-21,6.08-40.84,16.65-59.01,2.83-4.87,7.28-9.06,11.72-12.65,4.09-3.3,8.77-2.71,12,1.49,4.31,5.6,9.33,11.46,11.14,18.01,4.42,15.97,7.95,32.29,10.33,48.69,1.62,11.15-.5,22.2-9.34,30.86-5.51,5.4-12.1,6.57-18.85,6.37Z"/>
    </g>
  </g>
</svg>