<?xml version="1.0" encoding="UTF-8"?>
<svg id="Layer_2" data-name="Layer 2" xmlns="http://www.w3.org/2000/svg" viewBox="0 0 1924.62 880.36">
  <defs>
    <style>
      .cls-1 {
        fill: #3a0ca3;
        stroke-width: 0px;
      }
    </style>
  </defs>
  <g id="Layer_1-2" data-name="Layer 1">
    <g id="Paint_1" data-name="Paint 1">
      <path class="cls-1" d="M1924.62,0c0,69.62,0,139.24,0,208.86,0,7.19-.03,7.02-7.01,7.75-10.91,1.15-21.81,1.93-31.93,7.32-7.24,3.86-12.52,9.31-16.73,15.92-3.31,5.18-6.12,10.73-8.71,16.31-3.28,7.05-9.29,10.82-16.22,12.03-7.32,1.28-15.04,1.51-22.43.75-11.47-1.18-20.44-6.98-24.85-18.14-2.43-6.14-4.06-12.58-6.26-18.82-2.32-6.57-4.48-13.24-7.42-19.54-6.03-12.88-17.52-17.73-30.74-19.21-5.45-.61-11.03-.68-16.5-.28-14.41,1.07-23.04,10.17-29.2,22.18-7.93,15.44-10.25,32.23-11.79,49.27-3.49,38.6-.62,77.05,2.76,115.43,2.68,30.56,6.51,61.02,10.15,91.49,3.48,29.13,7.43,58.21,11.08,87.33,3.68,29.28,7.75,58.53,10.73,87.88,3,29.5,8.36,58.86,7.17,88.68-.49,12.31-.84,24.78-3.11,36.82-3.09,16.33-10.28,31.23-24.29,41.11-8.03,5.66-17.65,8.53-27.78,8.93-11.83.46-23.84.24-33.88-6.37-6.43-4.23-12.1-10.46-16.39-16.93-11.17-16.81-12.61-36.52-14.22-55.9-2.48-29.95,1.54-59.63,4.62-89.31,3.39-32.68,7.4-65.3,10.57-98.01,3.27-33.7,6.97-67.42,8.44-101.22,1.68-38.49,1.97-77.09,1.17-115.61-.42-20.07-3.44-40.26-7.23-60.02-3.02-15.76-8.21-31.25-18.8-44.18-6.11-7.46-13.69-12.58-23.24-13.06-21.54-1.09-36.12,5.7-46.44,25.37-5.52,10.52-1.06-118.77-1.2-106.8-.37,30.44,3.77,60.53,6.87,90.72,1.52,14.87,3.67,29.99-.25,44.83-3.33,12.6-9.84,23.07-21.61,29.86-6.65,3.84-13.62,4.94-21.08,5.05-19.72.27-31.66-16.54-33.21-32.33-1.41-14.3,1.11-28.15,4.79-41.98,2.82-10.6,4.69-21.48,6.46-32.32,2.65-16.27,5.37-32.57,7.1-48.95,2-18.92-3.02,103.34-6.74,84.48-1.42-7.19-3.76-14.03-10.03-19.02-4.32-3.43-8.99-3.91-14.04-4.08-12.35-.4-22.99,4.29-33.26,10.53-10.25,6.23-20.44,12.66-33.23,12.43-7.23-.13-13.28-2.61-18.75-7.13-11-9.09-22.69-15.62-37.92-15.33-16.95.33-25.8,5.82-31.89,22.28-9.53,25.75-9.83,51.81-2.96,78.1,2.61,10.01,1.54,19.3-4.81,27.43-5.81,7.44-13.6,12.49-23.32,10.02-10.3-2.62-16.65-11.99-16.62-23.44.02-8.81,1.22-17.62,1.87-26.42,1.29-17.46,3-34.91,3.65-52.4.34-9.07-.59-18.25-5.59-26.55-6.19-10.27-20.76-14.75-31.76-10.01-10.86,4.67-15.86,13.97-19.8,23.87-8.89,22.37-11.62,45.96-13.26,69.82-2.48,36.14,3.62-113.07,8.34-77.29,1.96,14.85,6,29.42,8.15,44.25,2,13.84,3.23,27.83,3.86,41.8.31,6.88-.74,14.07-2.54,20.75-3.02,11.17-10.44,18.47-22.34,20.03-4.57.6-9.37.99-13.89.29-16.26-2.49-23.67-13.54-25.1-29.23-1.92-21-.37-41.93,3.66-62.73,3.52-18.15,5.83-36.54,9.15-54.73,6.31-34.56,2.12,115.68.88,80.85-.61-17.25-3.51-34.46-6.01-51.6-.83-5.67-3.32-11.18-5.63-16.52-4.75-10.96-14.62-12.34-21.75-2.68-6.49,8.79-11.96,18.34-18.03,27.45-2.67,4-5.37,8.1-8.69,11.54-9.57,9.94-22.16,8.2-28.28-4.24-4.47-9.08-7.9-18.67-11.66-28.08-5.05-12.63-18.99-17.35-27.11-8.89-4.69,4.88-7.51,10.69-8.35,17.72-2,16.59-.12,32.97,1.51,49.4.38,3.82.89,7.64,1.02,11.47.3,8.39-4.99,15.87-12.47,17.95-8.99,2.5-16.97-.19-20.31-8.19-1.83-4.38-2.07-9.74-1.84-14.6.48-9.97,2.55-19.91,2.44-29.84-.08-6.58-1.46-13.88-4.63-19.54-7.45-13.31-20.92-13.71-33.96-12.17-16.73,1.97-23.15,14.32-26.93,28.94-4.8,18.55-4.5,37.43-3.28,56.22,1.62,24.78,4.47,49.48,6.49,74.24.71,8.65.54,17.24-4.21,25.22-7.59,12.75-18.92,18.34-33.33,18.03-13.73-.3-23.34-7.26-27.83-20.39-3.05-8.92-2.56-18.12.58-27.01,11.21-31.75,19.27-64.12,20.23-97.99.51-18.13-.84-36.08-6.05-53.44-3.24-10.81-8.02-21.26-16.65-29.06-13.34-12.05-34.26-8.81-43.95,6.36-5.72,8.95-8.68,18.88-11.93,28.89-4.59,14.11-7.06,29.22-16.98,41.26-5.55,6.74-16.87,10.21-25.58,8.55-12.1-2.31-18.07-11.05-23.51-20.53-2.89-5.05-4.99-10.55-7.75-15.68-4.16-7.75-7.81-15.94-13.06-22.91-11.05-14.68-29.22-20.65-46.89-15.39-9.95,2.96-15.58,11.57-20.43,20.3-8.32,14.99-11.64,31.6-14.35,48.17-5.02,30.76-4.91-156.59-3.12-125.57,1.32,22.95,3.98,45.85,6.66,68.69,1.16,9.89,3.46,19.71,5.97,29.37,4.88,18.81,5.95,37.92,4.57,57.12-.93,12.91-5.06,24.99-15.36,33.69-11.05,9.34-24.33,10.28-37.89,7.98-11.69-1.99-22.2-7.19-26.89-18.51-3.56-8.6-6.27-18.31-6.18-27.49.17-17.95,1.86-35.97,4.22-53.79,2.47-18.65,6.65-37.06,9.73-55.64,4.31-25.97,9.25,166.59,9.09,140.12-.06-9.78-.49-19.99-3.32-29.22-5.6-18.3-17.51-33.99-42.44-34.18-7.18-.05-13.99-.51-21.01,2.6-11.56,5.12-15.84,14.2-16.46,25.75-.74,13.78,1.43,27.23,5.09,40.53,4.6,16.68,9.51,33.33,13,50.25,3.15,15.26-1.35,28.99-14,38.75-7.02,5.42-15.19,7.21-24.51,5.07-11.9-2.72-19.56-10.27-24.64-20.22-3-5.88-4.61-13.13-4.58-19.75.1-18.65,1.16-37.3,2.25-55.92.79-13.48,2.22-26.92,3.37-40.38.86-10.08-.21-19.92-3.04-29.67-3.65-12.57-17.11-21.54-31.64-17.55-17.87,4.92-57.71,56.47-65.59,71.25-8.5,15.94-14.26,32.99-17.39,50.84-2.96,16.9-6.8,33.71-8.58,50.73-2.3,22.04-4.09,44.25-4.04,66.39.07,35.85,1.06,71.75,3.14,107.54,1.31,22.6,5.07,45.07,8.15,67.54,4,29.26,8.29,58.46,8.21,88.1-.05,22.43-1.31,44.72-7.08,66.48-3.82,14.42-9.43,28.19-20.16,39.01-9.58,9.66-21.43,14.91-35.16,13.91-14-1.02-28.17-2.66-39.17-12.74-5.21-4.77-10.32-10.02-14.04-15.96-8.15-13.02-10.71-27.97-11.71-43.01-2.08-31.24,2.67-61.87,9.19-92.31,5.02-23.44,10.42-46.83,14.61-70.43,5.38-30.34,10.45-60.77,14.33-91.33,6.44-50.72,9.05-101.7,6.58-152.85-1.05-21.69-3.3-43.26-8.14-64.43-4.8-21.01-10.95-41.68-24.39-59.11-16.51-21.42-8.45-68.18-35.36-62.47-17.75,3.77-31.32,12.52-42.76,25.53-4.12,4.68-7.41,10.27-10.24,15.87-7.14,14.1-10.58,29.21-12.8,44.9-5.37,37.91-.78,75.17,5.26,112.48,2.37,14.62,3.9,29.4,5.38,44.15.84,8.36-3.21,12.72-10.34,16.89-4.6,2.69-8.91,7.39-11.18,12.21-3.09,6.57-5.72,13.95-1.57,21.54,1.61,2.94.45,5.66-2.72,6.96-2.45,1-5.03,1.88-7.63,2.27-10.26,1.52-20.25,1-29.36-4.75-11.61-7.33-16.9-18.42-18.5-31.57-3.45-28.25,2.89-55.32,9.65-82.43,3.75-15.02,6.07-30.39,9.13-45.59,4.15-20.6,5.52-41.4,3.3-62.25-1.5-14.13-5.76-27.49-13.93-39.61-10.81-16.05-25.93-25.06-44.05-30.48-11.99-3.58-24.19-4.7-36.53-5.34V0h1924.62Z"/>
      <path class="cls-1" d="M85.38,658.94c2-28.85,9.23-52.2,25.44-72.21,7.28-8.99,13.38-8.01,20.1,1.5,7.37,10.44,13.55,21.16,16.91,33.62,4.82,17.85,7.4,35.95,1.8,53.68-3.89,12.32-8.77,17.69-22.65,19.48-10.03,1.29-20,.38-28.03-6.14-4.18-3.39-7.65-8.45-9.68-13.47-2.5-6.18-3.15-13.09-3.89-16.46Z"/>
      <path class="cls-1" d="M1401.07,377.26c-18.62,1.32-34.26-16.21-33.66-33.77.72-21,6.08-40.84,16.65-59.01,2.83-4.87,7.28-9.06,11.72-12.65,4.09-3.3,8.77-2.71,12,1.49,4.31,5.6,9.33,11.46,11.14,18.01,4.42,15.97,7.95,32.29,10.33,48.69,1.62,11.15-.5,22.2-9.34,30.86-5.51,5.4-12.1,6.57-18.85,6.37Z"/>
    </g>
  </g>
</svg>