<?xml version="1.0" encoding="UTF-8"?>
<svg id="Layer_2" data-name="Layer 2" xmlns="http://www.w3.org/2000/svg" viewBox="0 0 250 462">
  <defs>
    <style>
      .cls-1, .cls-2 {
        stroke-width: 0px;
      }

      .cls-2 {
        fill: #fff;
      }
    </style>
  </defs>
  <g id="Layer_1-2" data-name="Layer 1">
    <g>
      <path class="cls-2" d="M250,462H0V0h250v462ZM64.79,183.32c6.76,5.38,6.74,12.92,7.14,19.16,1.07,16.68.41,33.47.61,50.22.08,6.93.25,13.91,1.09,20.77.37,2.98,1.62,6.35,5.99,6.71,4.52.37,8.03-.67,9.17-5.39.87-3.62,1.55-7.39,1.53-11.1-.04-13.77.38-27.47,5.4-40.49.84-2.18,3.35-3.7,5.09-5.53,1.65,2.09,4.31,3.97,4.78,6.3,1.88,9.34,3.46,18.78,4.44,28.25.83,8.07.87,16.24.95,24.37.38,36.92.67,73.84.92,110.76.02,3.48-.62,6.96-.7,10.45-.39,16.92-.91,33.83-.91,50.75,0,6.54,4.85,10.82,10.12,11.4,6.66.73,10.22-5.41,10.9-11.11.87-7.22,1.16-14.57,1.02-21.85-.18-9.95-1.14-19.89-1.5-29.84-.74-20.59-1.05-41.2-1.99-61.78-1.93-42.41-1.29-84.77,1.67-127.1.67-9.55,1.7-19.09,3-28.57.81-5.91,2.1-11.81,3.9-17.49.62-1.96,3.39-4.42,5.22-4.45,1.73-.03,4.45,2.51,5.09,4.47,2.19,6.71,4.46,13.57,5.24,20.54,1.39,12.51,1.76,25.13,2.48,37.72.43,7.46,7.95,13.02,14.23,10,3.21-1.54,5.87-4.24,8.8-6.4,6.8-5.01,10.42-4.15,12.33,4.25,2.14,9.38,4.17,19.07,4.09,28.61-.27,36.21-1.55,72.42-2.02,108.63-.05,3.69,1.76,8.64,4.47,10.88,7.27,6.01,13.92.56,15.18-9.3,1.43-11.15,1.44-22.49,2.04-33.75.68-12.77,1.24-25.54,2.05-38.29.44-6.93,1.01-13.87,2.03-20.74,1.58-10.72,3.54-21.38,5.44-32.05,1.23-6.94,2.14-13.99,4.09-20.73,2.76-9.51,5.85-18.99,9.73-28.09,5.64-13.2,7.88-26.81,6.85-40.99-.61-8.39-2.67-16.43-6.72-23.95-3.97-7.38-4.37-15.09-.96-22.9,3.26-7.47,7.24-14.74,9.49-22.51,6.64-22.83-.24-42.6-16.18-59.13-15.32-15.88-35.06-22.06-56.7-22.49-4.73-.1-9.49,1.49-14.24,1.53-10.96.08-21.18,3.75-30.47,8.42-16.28,8.19-32.81,10.39-50.14,6.16-10.25-2.5-20.38-5.13-30.99-5.34-7.89-.16-15.61.32-21.54,6.56-5.98,6.3-10.01,13.8-12.29,22.08-1.24,4.51-2.54,9.6-1.63,13.98,2.17,10.46,5.33,20.54,1.59,31.37-3.2,9.27-5.25,18.94-8.5,28.19-3.53,10.04-4.35,20.07-1.08,30.11,3.12,9.61,7.11,18.93,10.53,28.44,2.28,6.32,4.55,12.67,6.26,19.15,1.91,7.23,3.29,14.61,4.73,21.96,1.73,8.88,4.2,17.75,4.71,26.71,1.21,21.38,1.03,42.83,2.26,64.21.75,13.03.24,26.44,5.57,38.8,1.07,2.49,3.81,4.98,6.33,5.84,1.42.48,4.99-1.95,5.8-3.84,1.76-4.15,3.29-8.79,3.33-13.24.36-43.16-.9-86.36,4.1-129.38.82-7.04,2.04-13.93,6.78-19.94ZM173.93,286.37c-2.22-8.98-4.34-18.47-7.05-27.79-.56-1.94-3.31-3.23-5.04-4.83-1.43,1.73-3.75,3.29-4.13,5.23-2.07,10.53-3.95,21.12-5.28,31.76-.43,3.48.69,7.26,1.63,10.77.91,3.42,2.58,6.46,6.8,6.96,4.18.49,7.4-.88,8.67-4.92,1.66-5.3,2.79-10.76,4.4-17.19ZM52.72,393.79c-1.25-5.31-2.48-11.27-4.14-17.11-.36-1.26-2.2-2.83-3.42-2.88-1-.04-2.66,1.77-3.05,3.06-1.53,5.05-3.29,10.16-3.79,15.36-.45,4.66.17,9.58,1.26,14.16.42,1.76,3.59,4.18,5.26,4,2-.22,4.56-2.57,5.39-4.6,1.4-3.44,1.62-7.36,2.51-12Z"/>
      <path class="cls-1" d="M64.79,183.32c-4.73,6.01-5.96,12.9-6.78,19.94-5,43.01-3.74,86.22-4.1,129.38-.04,4.45-1.57,9.08-3.33,13.24-.8,1.89-4.38,4.32-5.8,3.84-2.52-.85-5.26-3.35-6.33-5.84-5.33-12.35-4.82-25.76-5.57-38.8-1.24-21.37-1.05-42.83-2.26-64.21-.51-8.97-2.98-17.83-4.71-26.71-1.43-7.35-2.81-14.73-4.73-21.96-1.72-6.48-3.99-12.83-6.26-19.15-3.43-9.51-7.41-18.83-10.53-28.44-3.26-10.04-2.45-20.07,1.08-30.11,3.25-9.25,5.3-18.92,8.5-28.19,3.74-10.83.58-20.91-1.59-31.37-.91-4.38.39-9.47,1.63-13.98,2.28-8.28,6.31-15.78,12.29-22.08,5.93-6.25,13.65-6.72,21.54-6.56,10.6.22,20.74,2.84,30.99,5.34,17.33,4.23,33.86,2.03,50.14-6.16,9.29-4.67,19.51-8.34,30.47-8.42,4.75-.04,9.51-1.63,14.24-1.53,21.64.44,41.38,6.61,56.7,22.49,15.94,16.53,22.81,36.3,16.18,59.13-2.26,7.77-6.24,15.04-9.49,22.51-3.4,7.81-3.01,15.52.96,22.9,4.05,7.52,6.11,15.56,6.72,23.95,1.03,14.18-1.21,27.79-6.85,40.99-3.88,9.09-6.97,18.58-9.73,28.09-1.96,6.74-2.86,13.79-4.09,20.73-1.9,10.67-3.85,21.33-5.44,32.05-1.01,6.86-1.59,13.81-2.03,20.74-.81,12.76-1.37,25.53-2.05,38.29-.6,11.26-.61,22.59-2.04,33.75-1.26,9.86-7.91,15.31-15.18,9.3-2.7-2.24-4.51-7.19-4.47-10.88.47-36.21,1.75-72.42,2.02-108.63.07-9.54-1.96-19.23-4.09-28.61-1.91-8.4-5.54-9.26-12.33-4.25-2.92,2.16-5.58,4.86-8.8,6.4-6.27,3.01-13.8-2.54-14.23-10-.72-12.58-1.09-25.21-2.48-37.72-.78-6.97-3.04-13.83-5.24-20.54-.64-1.95-3.37-4.5-5.09-4.47-1.83.04-4.6,2.5-5.22,4.45-1.8,5.68-3.09,11.58-3.9,17.49-1.3,9.48-2.33,19.02-3,28.57-2.96,42.33-3.6,84.69-1.67,127.1.94,20.58,1.25,41.19,1.99,61.78.36,9.95,1.32,19.89,1.5,29.84.13,7.28-.16,14.63-1.02,21.85-.68,5.7-4.24,11.84-10.9,11.11-5.27-.58-10.12-4.85-10.12-11.4,0-16.92.52-33.83.91-50.75.08-3.49.73-6.97.7-10.45-.25-36.92-.54-73.84-.92-110.76-.08-8.13-.12-16.3-.95-24.37-.98-9.47-2.55-18.91-4.44-28.25-.47-2.33-3.12-4.21-4.78-6.3-1.74,1.83-4.25,3.36-5.09,5.53-5.02,13.02-5.45,26.72-5.4,40.49.01,3.7-.66,7.48-1.53,11.1-1.14,4.72-4.65,5.76-9.17,5.39-4.37-.36-5.63-3.72-5.99-6.71-.84-6.87-1.01-13.84-1.09-20.77-.2-16.75.47-33.54-.61-50.22-.4-6.23-.38-13.78-7.14-19.16Z"/>
      <path class="cls-1" d="M173.93,286.37c-1.62,6.42-2.74,11.89-4.4,17.19-1.26,4.03-4.49,5.41-8.67,4.92-4.22-.5-5.89-3.54-6.8-6.96-.93-3.51-2.06-7.29-1.63-10.77,1.33-10.64,3.2-21.23,5.28-31.76.38-1.94,2.7-3.5,4.13-5.23,1.74,1.59,4.48,2.89,5.04,4.83,2.71,9.32,4.83,18.81,7.05,27.79Z"/>
      <path class="cls-1" d="M52.72,393.79c-.89,4.64-1.12,8.56-2.51,12-.82,2.03-3.38,4.37-5.39,4.6-1.66.19-4.84-2.23-5.26-4-1.09-4.58-1.71-9.5-1.26-14.16.51-5.2,2.26-10.31,3.79-15.36.39-1.29,2.05-3.11,3.05-3.06,1.22.05,3.07,1.62,3.42,2.88,1.66,5.84,2.9,11.8,4.14,17.11Z"/>
    </g>
  </g>
</svg>