<?xml version="1.0" encoding="UTF-8"?>
<svg id="Layer_2" data-name="Layer 2" xmlns="http://www.w3.org/2000/svg" viewBox="0 0 313 529">
  <defs>
    <style>
      .cls-1, .cls-2 {
        stroke-width: 0px;
      }

      .cls-2 {
        fill: #fff;
      }
    </style>
  </defs>
  <g id="Layer_1-2" data-name="Layer 1">
    <g>
      <path class="cls-2" d="M313,142.73v386.27H0C0,352.67,0,176.33,0,0c104.33,0,208.67,0,313,0,0,43.58,0,87.17,0,130.75-1.93-5.99-3.94-11.95-5.77-17.97-4.87-15.99-6.83-32.18-2.83-48.69,6.83-28.13-10.72-58.35-44.8-61.2-29.58-2.48-57.42,5.62-84.31,16.18-21.54,8.46-42.24,9.99-63.89,1.86-11.17-4.19-22.56-7.83-34-11.23-9.1-2.71-18.29-2.44-27.39.81-13,4.64-21.73,14.23-29.66,24.87C5.56,55.24.29,76.93,6.96,101.22c4.94,17.97,5.95,35.78-.69,53.88-5.13,13.97-5.32,28.69-1.61,43.26,2,7.88,4.97,15.62,6.05,23.62,3.16,23.54,6.5,47.13,8.07,70.81,1.57,23.68,1,47.49,1.56,71.25.11,4.74.48,9.66,1.94,14.1.73,2.21,4.09,4.65,6.46,4.87,2.08.2,5.74-2.12,6.41-4.1,1.72-5.08,2.97-10.58,2.96-15.92-.03-18.12-.99-36.24-1-54.36,0-14.78.5-29.58,1.48-44.32.61-9.28,2.56-18.49,7.49-26.66,4.99-8.28,13.39-10.03,20.57-3.6,3.57,3.2,6.38,7.69,8.39,12.11,5.72,12.57,8.15,26.18,8.36,39.76.6,38.06.94,76.15.06,114.2-.65,28.06-3.45,56.06-5.15,84.1-.75,12.38-.23,24.7,5.48,36.06,1.82,3.62,4.03,7.64,9.1,7.42,5.25-.23,6.77-4.7,8.84-8.43.16-.28.25-.63.29-.95,1.05-8.19,3.12-16.4,2.94-24.57-.9-42.22-2.83-84.43-3.52-126.65-.83-50.07.75-100.11,7.17-149.84,1.15-8.9,3.85-17.96,7.68-26.08,5.46-11.56,18.39-12.57,27.23-3.36,7.91,8.24,10.47,18.71,12.49,29.35,5,26.36,3.83,52.96,2.94,79.57-.2,5.92,1.11,12.15,3.04,17.78,1.38,4.04,6.36,3.93,9.43.77,3.65-3.76,4.67-8.39,4.31-13.34-.94-12.59-2.21-25.16-3.07-37.76-.76-11.11-1.98-22.39,2.56-32.98,1.13-2.64,4.43-5.64,7.03-5.94,2.02-.23,5.77,3.07,6.53,5.49,2.37,7.55,4.77,15.38,5.17,23.2.84,16.26.96,32.6.36,48.87-.84,23.08-3,46.12-3.72,69.21-.21,6.69,1.74,13.81,4.22,20.12,2.39,6.07,8.65,6.32,11.94.61,2.73-4.74,5.25-10.39,5.36-15.68.26-12.26-1.01-24.54-1.64-36.82-2.02-39.35-4.99-78.72-1.04-118.09.8-7.97,3.35-15.85,5.87-23.52.75-2.3,4.21-5.24,6.3-5.14,2.17.1,4.55,3.27,6.16,5.58,1.37,1.97,2.04,4.56,2.53,6.97,1.91,9.27,3.6,18.58,5.41,27.86.87,4.46,4.82,8.34,8.55,8.49,3.79.16,7.93-3.39,9.1-7.87.29-1.12.33-2.31.59-3.43,1.56-6.59,2.62-13.37,4.98-19.67.94-2.5,4.79-5.44,7.26-5.39,2.47.05,6.1,3.14,7.05,5.7,2.38,6.47,4.62,13.34,4.93,20.14.65,14.25-.08,28.56,0,42.85.02,3.76.36,7.7,1.57,11.2.67,1.92,3.4,4.21,5.31,4.31,1.89.1,5.12-1.96,5.67-3.72,1.48-4.79,2.66-9.95,2.51-14.93-.5-17.44-2.26-34.85-2.31-52.28-.04-16.31,2.1-32.44,9.46-47.5,4.64-9.49,8.44-19.38,12.62-29.1Z"/>
      <path class="cls-1" d="M313,142.73c-4.18,9.71-7.98,19.61-12.62,29.1-7.36,15.06-9.51,31.19-9.46,47.5.05,17.43,1.8,34.85,2.31,52.28.14,4.97-1.03,10.13-2.51,14.93-.54,1.76-3.77,3.82-5.67,3.72-1.91-.1-4.64-2.39-5.31-4.31-1.21-3.5-1.56-7.44-1.57-11.2-.07-14.29.66-28.6,0-42.85-.31-6.8-2.56-13.67-4.93-20.14-.94-2.56-4.58-5.65-7.05-5.7-2.47-.05-6.32,2.89-7.26,5.39-2.36,6.29-3.43,13.07-4.98,19.67-.27,1.13-.3,2.31-.59,3.43-1.17,4.48-5.31,8.03-9.1,7.87-3.73-.16-7.68-4.04-8.55-8.49-1.81-9.29-3.51-18.6-5.41-27.86-.5-2.41-1.17-5-2.53-6.97-1.6-2.31-3.98-5.47-6.16-5.58-2.09-.1-5.54,2.84-6.3,5.14-2.52,7.67-5.07,15.55-5.87,23.52-3.95,39.37-.98,78.74,1.04,118.09.63,12.28,1.9,24.56,1.64,36.82-.11,5.3-2.63,10.95-5.36,15.68-3.29,5.71-9.55,5.47-11.94-.61-2.49-6.32-4.43-13.43-4.22-20.12.72-23.08,2.87-46.12,3.72-69.21.6-16.27.48-32.61-.36-48.87-.4-7.82-2.8-15.65-5.17-23.2-.76-2.43-4.51-5.73-6.53-5.49-2.6.3-5.9,3.3-7.03,5.94-4.53,10.59-3.32,21.87-2.56,32.98.86,12.6,2.14,25.17,3.07,37.76.37,4.95-.66,9.58-4.31,13.34-3.07,3.17-8.04,3.27-9.43-.77-1.93-5.64-3.23-11.87-3.04-17.78.89-26.61,2.06-53.21-2.94-79.57-2.02-10.64-4.59-21.11-12.49-29.35-8.84-9.21-21.77-8.2-27.23,3.36-3.83,8.11-6.53,17.17-7.68,26.08-6.42,49.73-8,99.76-7.17,149.84.7,42.23,2.63,84.43,3.52,126.65.17,8.17-1.9,16.38-2.94,24.57-.04.33-.13.67-.29.95-2.08,3.73-3.59,8.2-8.84,8.43-5.07.22-7.28-3.8-9.1-7.42-5.71-11.37-6.22-23.69-5.48-36.06,1.69-28.04,4.5-56.04,5.15-84.1.88-38.05.54-76.14-.06-114.2-.21-13.58-2.64-27.2-8.36-39.76-2.01-4.42-4.82-8.91-8.39-12.11-7.18-6.44-15.58-4.68-20.57,3.6-4.93,8.17-6.87,17.38-7.49,26.66-.98,14.74-1.48,29.55-1.48,44.32,0,18.12.97,36.24,1,54.36,0,5.33-1.24,10.84-2.96,15.92-.67,1.98-4.33,4.29-6.41,4.1-2.37-.22-5.73-2.67-6.46-4.87-1.46-4.44-1.83-9.36-1.94-14.1-.56-23.75,0-47.57-1.56-71.25-1.57-23.68-4.91-47.26-8.07-70.81-1.08-8-4.04-15.74-6.05-23.62-3.71-14.57-3.52-29.29,1.61-43.26,6.65-18.11,5.63-35.92.69-53.88-6.67-24.28-1.4-45.98,13.39-65.83,7.93-10.64,16.66-20.23,29.66-24.87,9.1-3.25,18.29-3.52,27.39-.81,11.44,3.4,22.83,7.03,34,11.23,21.64,8.13,42.35,6.6,63.89-1.86C202.18,8.51,230.02.42,259.6,2.89c34.08,2.85,51.63,33.06,44.8,61.2-4.01,16.51-2.05,32.7,2.83,48.69,1.83,6.02,3.84,11.98,5.77,17.97v11.98Z"/>
    </g>
  </g>
</svg>