<?xml version="1.0" encoding="UTF-8"?>
<svg id="Layer_2" data-name="Layer 2" xmlns="http://www.w3.org/2000/svg" viewBox="0 0 289 445">
  <defs>
    <style>
      .cls-1, .cls-2 {
        stroke-width: 0px;
      }

      .cls-2 {
        fill: #fff;
      }
    </style>
  </defs>
  <g id="Layer_1-2" data-name="Layer 1">
    <g>
      <path class="cls-2" d="M289,445c-96.33,0-192.67,0-289,0C0,296.67,0,148.33,0,0c96.33,0,192.67,0,289,0,0,148.33,0,296.67,0,445ZM153.12,203.68c1.15-12.97,1.63-24.96,3.5-36.73.95-5.99,3.65-12.03,6.83-17.28,6.4-10.56,27.34-10.26,31.53,2.95,2.63,8.27,3.33,17.15,5,25.74.69,3.54,1.29,7.16,2.53,10.53,2.78,7.57,7.76,10.63,15.77,10.26,6.17-.28,9.65-3.69,11.61-11.67.59-2.41.8-4.91,1.14-7.38.66-4.77.9-9.64,2.04-14.29,1.78-7.27,5.99-8.11,11.37-2.94,3.33,3.21,6.83,6.35,10.66,8.9,5.06,3.37,10.55,2.8,14.26-2.01,3.67-4.77,7.17-10.05,9.18-15.67,6.23-17.4,8.23-35.57,7.46-54-.79-18.93-5.75-35.76-21.76-48.17-6.97-5.41-12.41-12.86-18.3-19.59-7.76-8.86-16.49-16.53-27.76-20.22-9.71-3.18-19.71-5.67-29.75-7.63-20.92-4.07-41.23-2.19-60.62,7.4-3.94,1.95-8.42,3.65-12.72,3.83-7.4.32-14.96-.01-22.28-1.19C60.97,9.42,27.26,25.7,12.24,54.1c-4.8,9.08-7.47,18.88-6.65,29.21.63,7.91,2.36,15.73,3.14,23.64,1.12,11.3.2,22.42-2.55,33.56-2.37,9.59-4.17,19.5-4.66,29.34-.53,10.51,11.04,17.19,20.43,12.55,5.19-2.56,9.32-6.26,10.88-12.24.92-3.53,1.82-7.13,3.36-10.41,1.85-3.96,4.95-7.02,9.8-6.03,4.61.94,6.39,4.92,6.45,8.98.12,8.62.71,17.47-.92,25.83-4.28,21.98-9.62,43.75-14.59,65.6-1.42,6.24-2.37,12.45.61,18.5,6.79,13.78,26.55,13.26,35.95,1.06,5.56-7.21,4.41-15.66,4.04-23.96-.55-12.28-1.4-24.58-1.17-36.86.12-6.31,1.57-12.85,3.72-18.82,4.01-11.18,17.93-17.69,29.03-13.98,9.76,3.26,13.43,12,15.19,20.74,2.18,10.82,3.08,22.01,3.41,33.07.72,24.64-2.02,49.08-5.43,73.46-3.18,22.7-6.38,45.4-8.85,68.18-1.3,12-2.06,24.23-1.24,36.23,1.01,14.89,6.75,27.63,23.42,31.17,10.74,2.29,27.5-.91,34.1-12.82,7.22-13.04,6.55-26.97,4.99-40.84-2.13-18.96-5.25-37.82-7.72-56.75-2.87-22.05-5.76-44.11-8.14-66.22-2.27-21.14-3.89-42.34-5.72-62.61ZM204.57,309.48c1.74,4.82,3.02,10.53,5.75,15.43,3.69,6.61,10.15,9.41,17.7,8.71,9.44-.88,14.21-6.85,16.47-13.84,4.09-12.66,1.41-25.27-1.46-37.8-3.1-13.56-5.97-27.18-9.06-40.74-1.14-4.99-2.01-10.17-4.11-14.76-2.5-5.46-8.01-5.49-11.42-.51-1.09,1.59-1.98,3.6-2.13,5.48-.67,8.58-.77,17.22-1.6,25.78-.78,8.04-1.91,16.08-3.47,24.01-1.79,9.08-4.23,18.03-6.67,28.24Z"/>
      <path class="cls-1" d="M153.12,203.68c1.83,20.27,3.45,41.48,5.72,62.61,2.38,22.11,5.27,44.17,8.14,66.22,2.46,18.93,5.58,37.78,7.72,56.75,1.56,13.87,2.23,27.8-4.99,40.84-6.59,11.91-23.36,15.1-34.1,12.82-16.67-3.55-22.41-16.28-23.42-31.17-.82-12-.06-24.23,1.24-36.23,2.47-22.78,5.67-45.48,8.85-68.18,3.42-24.38,6.15-48.82,5.43-73.46-.32-11.06-1.23-22.25-3.41-33.07-1.76-8.75-5.43-17.49-15.19-20.74-11.1-3.71-25.02,2.8-29.03,13.98-2.14,5.97-3.6,12.51-3.72,18.82-.23,12.28.62,24.58,1.17,36.86.37,8.31,1.52,16.75-4.04,23.96-9.4,12.19-29.16,12.72-35.95-1.06-2.98-6.05-2.03-12.26-.61-18.5,4.97-21.84,10.31-43.62,14.59-65.6,1.63-8.36,1.04-17.21.92-25.83-.06-4.06-1.84-8.04-6.45-8.98-4.85-.99-7.95,2.08-9.8,6.03-1.54,3.28-2.44,6.88-3.36,10.41-1.56,5.98-5.7,9.68-10.88,12.24-9.4,4.64-20.96-2.04-20.43-12.55.49-9.84,2.29-19.75,4.66-29.34,2.75-11.14,3.67-22.26,2.55-33.56-.78-7.91-2.51-15.73-3.14-23.64-.82-10.33,1.85-20.14,6.65-29.21C27.26,25.7,60.97,9.42,92.82,14.54c7.32,1.18,14.88,1.51,22.28,1.19,4.3-.18,8.78-1.88,12.72-3.83,19.39-9.6,39.7-11.48,60.62-7.4,10.04,1.95,20.03,4.45,29.75,7.63,11.27,3.69,20,11.36,27.76,20.22,5.89,6.73,11.33,14.18,18.3,19.59,16.01,12.41,20.97,29.24,21.76,48.17.77,18.43-1.23,36.59-7.46,54-2.01,5.62-5.5,10.9-9.18,15.67-3.7,4.81-9.2,5.38-14.26,2.01-3.83-2.55-7.32-5.7-10.66-8.9-5.38-5.17-9.59-4.33-11.37,2.94-1.14,4.65-1.37,9.52-2.04,14.29-.34,2.47-.55,4.97-1.14,7.38-1.96,7.98-5.44,11.39-11.61,11.67-8.02.36-12.99-2.7-15.77-10.26-1.24-3.37-1.84-6.99-2.53-10.53-1.67-8.59-2.37-17.46-5-25.74-4.19-13.2-25.13-13.51-31.53-2.95-3.18,5.25-5.88,11.29-6.83,17.28-1.86,11.77-2.35,23.76-3.5,36.73Z"/>
      <path class="cls-1" d="M204.57,309.48c2.44-10.21,4.88-19.16,6.67-28.24,1.56-7.92,2.68-15.96,3.47-24.01.83-8.56.93-17.2,1.6-25.78.15-1.88,1.05-3.89,2.13-5.48,3.41-4.98,8.92-4.95,11.42.51,2.1,4.59,2.98,9.78,4.11,14.76,3.09,13.56,5.96,27.18,9.06,40.74,2.87,12.53,5.56,25.14,1.46,37.8-2.26,6.99-7.03,12.95-16.47,13.84-7.55.7-14.01-2.1-17.7-8.71-2.73-4.9-4.02-10.61-5.75-15.43Z"/>
    </g>
  </g>
</svg>