<?xml version="1.0" encoding="UTF-8"?>
<svg id="Layer_2" data-name="Layer 2" xmlns="http://www.w3.org/2000/svg" viewBox="0 0 1923.56 712.29">
  <defs>
    <style>
      .cls-1 {
        fill: #4cc9f0;
        stroke-width: 0px;
      }
    </style>
  </defs>
  <g id="Layer_1-2" data-name="Layer 1">
    <g id="Paint_2" data-name="Paint 2">
      <path class="cls-1" d="M0,221.21c3.4.94,6.79,2.63,10.21,2.71,25.62.62,50.31,5.09,71.72,19.9,10.05,6.94,18.94,15.71,27.69,24.33,9.34,9.2,19.55,16.87,32.37,19.83,16.08,3.72,29.99-2.2,42.18-12.21,15.17-12.45,30-25.32,44.86-38.16,14.23-12.29,33.62-13.06,50.6-1.55,15.78,10.7,25.06,26.06,31.7,43.58,13.53,35.68,15.02,72.89,14.51,110.33-.31,22.5-.8,45.05-2.45,67.48-2.02,27.39-5.18,54.71-8.12,82.03-3.1,28.82-6.62,57.6-9.77,86.42-1.68,15.37.71,30.47,6.29,44.65,6.5,16.53,17.29,29.84,34.24,37.21,15.91,6.92,31.39,6.04,45.51-3.8,12.7-8.85,19.95-21.54,23.74-36.77,5.54-22.3,3.46-44.28.07-66.48-5.74-37.54-10.99-75.13-14.06-113.04-3.48-42.97-5.01-85.95-2.52-128.96,1.18-20.43,3.09-40.95,6.72-61.07,4.49-24.88,10.7-49.58,25.27-70.99,6.66-9.78,15.05-17.74,27.01-20.99,9.94-2.7,18.36,1.66,26.62,5.91,14.17,7.3,27.68,16.04,42.23,22.42,17.7,7.77,36.34,9.29,54-.53,6.55-3.65,12.19-9.17,17.68-14.43,8.63-8.26,16.47-17.35,25.21-25.47,12.55-11.66,27.8-13.79,44.28-11.5,16.41,2.28,28.44,10.93,38.25,23.76,7.84,10.26,12.34,21.99,16.56,33.94,8.67,24.52,11.16,49.9,11.27,75.73.13,32.05-.72,64.01-4.82,95.84-1.89,14.7-3.87,29.43-4.87,44.21-.91,13.4.63,26.57,8.84,38.1,4.73,6.65,11.62,9.32,19.07,10.62,24.39,4.23,37.67-12.82,38.92-34.09.9-15.24-.2-30.65-1.23-45.92-1.37-20.28-3.8-40.48-5.31-60.75-2.24-30.14-2.62-60.33-.22-90.48,1.72-21.62,6.1-42.72,18.31-61.02,12.53-18.78,33.41-28.27,57.53-22.46,19.39,4.67,30.12,18.18,37.37,35.69,12.26,29.61,15.58,60.84,17.17,92.35,2.37,47.07.38,94.09-4.01,140.93-2.63,28.16-3.61,56.23-1.97,84.36,1.13,19.21,5.05,38.03,14.16,55.27,10.33,19.54,34.23,28.64,55.04,19.54,18.96-8.29,25.95-24.36,29.68-42.69,3.62-17.75,3.69-35.75,2.67-53.8-1.77-31.35-7.42-62.13-12.93-92.96-3.95-22.12-7.44-44.36-9.93-66.68-4.78-42.78-8.24-85.7-4.58-128.77.96-11.35,2.07-22.89,7.45-33.43,4.43-8.67,13.86-13.19,23.2-9.66,7.43,2.81,14.33,6.96,21.6,10.24,8.13,3.68,16.31,7.27,24.62,10.5,11.47,4.46,21.77.7,31.01-5.95,7.96-5.73,15.22-12.41,22.85-18.6,15.23-12.35,32.33-16.08,51.51-11.76,26.93,6.06,38.36,26.03,45.46,49.87,7.66,25.72,11.85,52.09,10.78,78.91-.79,19.78-3.73,39.46-5.28,59.22-.94,12.05-3.46,24.47,2.09,35.98,2.02,4.2,5.74,9.32,9.74,10.55,19.68,6.01,36.54,1.77,39.05-21.96,1.76-16.64-.4-33.23-2.96-49.78-4.23-27.32-9.23-54.67-5.79-82.54,2.37-19.21,6.79-37.77,19.1-53.41,10.56-13.41,24.53-19.87,41.55-18.03,15.47,1.68,29.98,6,41.09,18.17,7.73,8.47,11.22,18.75,13.71,29.44,10.63,45.48,7.54,91.12.49,136.62-2.9,18.7-8.07,37.04-11.62,55.66-3.11,16.34-5.49,32.83-8,49.28-1.98,12.97-.02,25.87,3.75,38.07,4.29,13.86,13.91,24.19,31.21,26.51,11.05,1.48,21.4.1,30.78-5.68,3.83-2.36,7.43-5.95,9.66-9.82,3.02-5.24,5.31-11.14,6.71-17.04,5.79-24.33,2.81-48.74-.61-73.02-2.48-17.64-6.47-35.09-8.48-52.78-3.25-28.57-3.89-57.29,2.08-85.64,3.07-14.6,6.68-29.17,11.32-43.34,4.07-12.44,11.15-23.76,21.67-31.75,4.98-3.78,12.19-6.59,18.34-6.49,18.77.3,34.8,7.29,46.76,22.74,6.99,9.02,14.41,18.01,23,25.43,10.87,9.38,24.21,12.1,38.77,10.29,16.31-2.03,30.34-9.4,44.75-16.37,15.08-7.29,30.16-15.09,46.06-20.06,20.26-6.32,41.29-6.54,60.97,3.25,12.35,6.14,20.73,16.02,25.19,29.53,5.77,17.48,4.19,34.73.89,52.26-2.7,14.36-.19,27.43,11.16,37.84,13.54,12.41,33.8,5.36,39.98-12.88,6.09-17.99,3.1-35.94,2.39-53.99-.68-17.18,2.8-33.11,16.59-44.6,7.73-6.45,16.67-11.1,26.72-14.07,16.71-4.94,33.65-6.5,50.88-6.54,7.48-.02,8.4-.82,8.4-8.24,0-69.73-.01-139.47,0-209.2,0-2.16.12-4.32.18-6.49H0v221.21Z"/>
      <path class="cls-1" d="M1756.24,591.67c-.82,10.31,1.49,19.43,8.89,27.11,10.16,10.55,39.33,11.79,48.78-7.61,6.27-12.87,5.29-25.91,2.72-39.06-1.88-9.61-4.82-19-7.24-28.51-4.04-15.91-5.65-32.02-5.03-48.48.36-9.78-.42-19.66-1.44-29.41-.47-4.51-2.19-9.12-4.33-13.16-3.58-6.78-11.39-6.79-14.3.24-3.02,7.29-4.95,15.11-6.64,22.85-4.89,22.41-9.02,45-14.23,67.34-3.76,16.09-6.53,32.23-7.18,48.7Z"/>
      <path class="cls-1" d="M1431.65,674.74c-.73-6.43-.99-12.95-2.28-19.26-3.7-18.1-9.85-35.1-23.06-48.81-6.82-7.07-13.49-8.12-21.62-2.31-11.09,7.93-18.16,19.02-21.98,31.79-2.98,9.96-4.84,20.32-6.27,30.64-1.64,11.85,1.67,23.14,8.76,32.44,3.58,4.69,9.74,8.28,15.46,10.27,11.24,3.9,22.94,4.14,33.75-2.06,10.2-5.84,14.75-15.37,16.19-26.64.25-1.98.22-3.99.32-5.99.24-.02.48-.05.72-.07Z"/>
      <path class="cls-1" d="M507.96,399.06c1.37,8.3,1.67,18.46,8.46,27.29,11.34,14.75,38.51,14.02,47.85-.78,4.47-7.09,6.92-14.49,7.56-22.35,1.33-16.25-1.21-32.02-7.3-47.33-3.22-8.1-6.2-16.2-12.69-22.22-10.77-10-15.98-8.57-24.52,2.79-13.34,17.74-18.84,38.63-19.36,62.61Z"/>
    </g>
  </g>
</svg>