<?xml version="1.0" encoding="UTF-8"?>
<svg id="Layer_2" data-name="Layer 2" xmlns="http://www.w3.org/2000/svg" viewBox="0 0 406.54 443.69">
  <defs>
    <style>
      .cls-1 {
        fill: #3a0ca3;
        stroke-width: 0px;
      }
    </style>
  </defs>
  <g id="Layer_1-2" data-name="Layer 1">
    <g>
      <path class="cls-1" d="M162.14,443.69h-15.96c-3.44-2.24-7.24-4.07-10.23-6.8-5.73-5.24-7.33-12.51-7.74-19.88-1-17.87,2.1-35.44,4.36-53.08,2.55-19.91,5.33-39.82,7.06-59.8.89-10.36-.17-20.87-5.71-30.37-3.7-6.35-9.33-9.39-16.19-10.26-8.22-1.05-14.66,3.29-16.09,11.41-1.08,6.13-1.61,12.57-1.01,18.74,1.09,11.23,3.63,22.32,4.71,33.55.59,6.14.51,12.74-1.12,18.61-4.03,14.55-21.1,18.49-31.71,7.84-5.56-5.58-8.89-12.47-8.21-20.19,1.35-15.52,3.35-31,5.52-46.43,2.18-15.45,5.88-30.75,4.55-46.51-.93-11.05-4.62-20.52-15.18-26.3-26.95-14.75-46.31-36.17-56.81-65.34-2.88-7.99-3.52-15.57.18-23.52,2.95-6.33,7.45-10.99,13.26-14.45,10.53-6.29,15.28-15.16,13.5-27.53-.73-5.08-1.01-10.28-.89-15.41.29-12.08,4.4-22.82,14.66-29.61,7.37-4.88,15.5-9.34,23.93-11.71,21.28-6,42.96-6.44,64.57-.94,6.27,1.6,12.55,3.14,18.82,4.72,12.39,3.12,24.38,1.2,36.19-2.86,10.97-3.77,21.77-8.09,32.89-11.34,15.28-4.46,30.69-8.55,46.21-12.07,29.55-6.7,58.7-5.79,86.78,6.73,27.78,12.39,45.56,33.01,51.21,63.41.29,1.54,1.87,2.83,2.85,4.24v9.98c-.88,1.31-1.88,2.56-2.63,3.95-2.26,4.19-3.6,9.24-6.8,12.48-6.01,6.09-12.95,11.31-19.74,16.59-5.74,4.47-12.11,8.15-17.63,12.86-3.77,3.22-3.07,7.12.91,10.08,2.92,2.17,6.17,3.91,9.05,6.13,6.04,4.64,12.46,8.96,17.74,14.38,5.62,5.78,9.78,13.07,7.91,21.61-1.46,6.66-4.73,12.85-10.31,17.18-4.71,3.65-10.14,6.4-14.64,10.27-3.78,3.25-7.44,7.11-9.78,11.44-5.17,9.57-6.2,20.45-5.8,30.97.88,23.21,2.34,46.43,4.64,69.53,1.5,15-6.17,27.75-20.46,30.54-12.86,2.51-24.82-7.14-24.31-20.2.23-5.85,1.36-11.81,3.04-17.44,6.17-20.74,9.26-41.81,7.94-63.46-.82-13.38-3.33-26.31-9.85-38.26-5.68-10.43-13.74-14.64-24.74-10.7-4.95,1.77-10.07,5.77-12.87,10.18-3.99,6.29-5.99,13.87-8.71,20.95-2.73,7.1-4.89,14.45-8.09,21.33-2,4.28-6,6.96-11.16,7.24-8.99.48-15.84-4.98-20.59-15.8-3.19-7.26-6.49-14.58-10.73-21.26-4.74-7.48-12.39-11.28-21.23-10.79-8.73.48-13.62,6.56-17.07,14.09-5.91,12.89-8.61,26.67-9.31,40.57-.94,18.73-1.04,37.57-.14,56.3.67,14.04,3.07,28.05,5.45,41.94,2.59,15.09,6.27,30.14,4.04,45.46-.99,6.77-4.1,13.59-7.71,19.49-2.11,3.44-7.11,5.11-10.82,7.58Z"/>
      <path class="cls-1" d="M270.16,352.22c.2,6.7.31,13.37-4.68,18.75-5.31,5.72-11.85,6.21-18.79,4.14-7.25-2.17-11.65-7.28-13.68-14.47-2.4-8.52-.56-17.01,1.67-25.02,2.22-7.97,5.95-15.7,10.09-22.91,4.55-7.94,10.89-7.58,15.52.43,6.98,12.05,9.43,25.35,9.86,39.09Z"/>
    </g>
  </g>
</svg>