<?xml version="1.0" encoding="UTF-8"?>
<svg id="Layer_2" data-name="Layer 2" xmlns="http://www.w3.org/2000/svg" viewBox="0 0 285.97 497.28">
  <defs>
    <style>
      .cls-1 {
        fill: #3a0ca3;
        stroke-width: 0px;
      }
    </style>
  </defs>
  <g id="Layer_1-2" data-name="Layer 1">
    <g>
      <path class="cls-1" d="M0,95.17c.3-1.08.85-2.16.85-3.24.07-14.09,4.48-27.37,13.26-37.6,10.04-11.7,21.82-21.99,37.09-27.81,15.9-6.05,32.06-5.41,48.34-5.21,8.57.11,17.14,1.85,25.69,1.67,10.6-.23,20.97-2.3,31.07-6.12,11.47-4.33,23.2-8.01,34.96-11.48,7.65-2.26,15.48-4.29,23.37-5.21,5.07-.59,10.52.51,15.6,1.72,12.41,2.96,23.66,8.51,33.47,16.78,8.7,7.33,15.55,15.7,18.36,27.28,2.44,10.02,4.75,19.95,3.61,30.24-.79,7.14-2.64,14.15-3.7,21.27-2.4,16.08-8.55,30.8-15.49,45.34-6.06,12.69-10.64,25.94-14.23,39.57-4.79,18.18-3.72,36.68-4.18,55.14-.11,4.17-2.1,8.5-4.02,12.35-2.14,4.28-6.72,6.75-10.79,4.43-3.23-1.84-6.5-6.21-6.94-9.8-1.02-8.32.12-16.88-.45-25.29-.67-9.98-1.67-20.06-5.96-29.31-2.91-6.28-7.93-10.76-14.08-13.77-5.51-2.7-19.62.42-24.1,4.7-8.34,7.96-10.31,18.06-12.06,29.04-4.38,27.5-2.21,55.08-1.84,82.55.4,29.82,3.63,59.6,5.31,89.42.33,5.83-.29,11.84-1.4,17.6-1.38,7.17-8.36,10.03-14.38,9.4-4.86-.51-10.29-6.21-10.45-12.38-.26-10.43.27-20.9.71-31.34.2-4.8,1.39-9.56,1.46-14.35.35-25.1.61-50.2.66-75.3.03-15.12.04-30.26-.71-45.35-.62-12.35-2.41-24.64-3.62-36.97-.79-8.05-1.1-16.16-2.28-24.15-.84-5.68-2.65-11.23-4.24-16.77-.88-3.06-2.08-6.06-3.35-8.99-2.08-4.77-6.19-5.62-10.77-5.02-4.04.53-5.24,3.68-6.66,7.03-4.45,10.52-6.24,21.49-8.04,32.74-4.88,30.6-5.76,61.31-5.68,92.16.05,16.43-1.05,32.87-.96,49.31.19,38.05.61,76.11,1.36,114.16.17,8.73,2.25,17.41,3.05,26.16.9,9.86,2.05,19.8-3.19,29.08-2.58,4.57-6.17,7.87-11.32,8.4-5.56.57-8.97-2.94-11.8-7.48-2.38-3.81-3.17-7.67-3.49-12.11-1.09-15.42,3.26-30.27,4.23-45.46.39-6.05,1.51-12.07,1.77-18.12,1.36-31.5,3.09-63,3.64-94.52.48-27.24-.41-54.51-.78-81.77-.09-6.63-.11-13.31-.94-19.87-1.21-9.58-2.81-19.14-4.89-28.57-.66-3.01-3.23-5.68-5.25-8.24-.49-.62-3.01-.69-3.37-.16-2.46,3.55-6.56,7.37-6.49,11.03.32,17.38,2.13,34.72,2.76,52.1.44,12.03,1.59,24.19-2.18,36.05-1.62,5.1-5.39,9.3-9.1,9.27-3.5-.02-8.35-4.61-8.69-9.66-.6-8.91-.72-17.9-.4-26.83.47-13.41,1.38-26.8,2.32-40.19.32-4.55,1.86-9.07,1.81-13.59-.07-6.14-1.3-12.25-1.74-18.4-.29-4.04.26-8.15-.18-12.16-.44-4.05-1.36-8.1-2.62-11.97-.46-1.4-2.39-2.87-3.87-3.17-.86-.17-2.69,1.74-3.18,3.05-1.37,3.66-2.91,7.45-3.24,11.29-.99,11.53-1.1,23.15-2.27,34.65-.47,4.62-2.17,9.4-4.45,13.46-2.71,4.83-8.31,4.52-11.77-.34-3.57-5.02-5.7-10.51-6.14-16.96-.61-8.95-2.31-17.84-3.73-26.73-1.91-11.97-4.11-23.9-5.95-35.88-1.31-8.57-2.24-17.2-3.33-25.81,0-4.99,0-9.98,0-14.97Z"/>
      <path class="cls-1" d="M256.88,349.59c-.32,3.22-.45,5.71-.83,8.17-1.16,7.61-6.16,11.89-14,12.1-6.93.19-11.68-4.12-14.01-11.01-2.8-8.28-.66-16.21.93-24.05,2.41-11.9,4.98-23.68,4.37-35.96-.26-5.28.29-10.62.78-15.9.19-2.09.84-4.33,1.95-6.07.84-1.32,2.8-2.79,4.16-2.69,1.39.1,3.1,1.78,3.85,3.2,1.05,2.01,1.51,4.39,1.92,6.67,2.96,16.32,5.91,32.63,8.71,48.98.98,5.72,1.53,11.51,2.19,16.58Z"/>
      <path class="cls-1" d="M15.04,311.57c1.53-9.08,3.26-19.35,5.02-29.61.14-.81.28-1.75.76-2.35,1.55-1.95,3.26-3.77,4.9-5.64,1.55,1.79,3.92,3.35,4.52,5.41,4.78,16.71,7.94,33.59,3.24,50.93-1.13,4.17-3.33,7.56-7.98,7.63-4.84.07-6.96-3.75-7.79-7.76-1.18-5.65-1.67-11.45-2.66-18.61Z"/>
    </g>
  </g>
</svg>