<?xml version="1.0" encoding="UTF-8"?>
<svg id="Layer_2" data-name="Layer 2" xmlns="http://www.w3.org/2000/svg" viewBox="0 0 357.26 465.08">
  <defs>
    <style>
      .cls-1 {
        fill: #3a0ca3;
        stroke-width: 0px;
      }
    </style>
  </defs>
  <g id="Layer_1-2" data-name="Layer 1">
    <g>
      <path class="cls-1" d="M215.14,465.08c-1.44-.74-2.81-1.81-4.33-2.16-10.24-2.32-15.46-9.38-17.35-19.01-3.59-18.27-1.14-36.44,2.03-54.48,6.37-36.19,12.91-72.33,11.68-109.32-.67-20.28-1.79-40.51-7.49-60.16-.64-2.21-1.7-4.31-2.66-6.42-3.28-7.22-9.97-8.27-14.63-1.8-4.92,6.83-8.93,14.3-13.63,21.31-3.66,5.46-6.88,11.48-13.75,13.8-6.26,2.12-11.42.04-13.41-6.23-1.58-5.01-2.65-10.28-3.17-15.51-1.29-12.88-1.71-25.89-7.24-37.96-2.31-5.05-6.1-8.05-11.58-9.21-6.37-1.34-12.05.92-14.02,7.1-1.94,6.08-3.41,12.51-3.76,18.87-1.11,20.44-.38,40.82,2.9,61.1.69,4.24.19,9-1.03,13.15-1.6,5.43-6.22,7.87-11.86,8.34-5.62.46-10.2-1.79-12.24-6.74-2.03-4.93-3.44-10.44-3.62-15.74-.41-12.71-1.69-25.13-6.02-37.21-4.68-13.04-13.01-23.4-22.77-32.81-7.89-7.61-16.84-14.35-23.57-22.86-11.1-14.06-18.65-30.18-20.97-48.28-1.09-8.5-3.33-17.19-2.47-25.52,2.45-23.72,9.17-46.05,28.68-61.92,8.29-6.74,17.69-11.79,29.05-11.04,1.33.09,2.68-.1,3.98.11,17.82,2.82,33.23-2.85,47.85-12.65C122.62,3.2,137.14-1.67,152.66.52c12.89,1.82,25.73,4.97,38.13,8.96,11.46,3.69,22.22,9.53,33.46,13.97,14.58,5.77,28.66,3.19,42.41-3.31,10.53-4.98,21.15-9.24,33.19-9.68,13.89-.5,25.16,4.61,35.27,13.46,17.16,15.02,24.5,33.53,21.49,56.45-3.77,28.71-12.42,56.07-22.25,83.06-10.34,28.38-18.44,57.19-20.61,87.42-.77,10.8-.37,21.56,2.86,32.12,2.41,7.87,2.37,15.67-2.5,22.99-4.67,7.03-13.06,10.94-20.5,9.05-7.35-1.86-13.58-9.4-13.37-17.9.3-12.11,1.46-24.2,2.37-36.29,1.55-20.77,2.94-41.56-3.06-61.9-2.24-7.6-5.81-14.42-14.7-16.66-6.07-1.53-10.83.11-14.85,4.42-6.82,7.31-9.66,16.65-11.83,25.98-9.41,40.44-9.86,81.44-5.95,122.49,1.73,18.14,5.35,36.11,8.2,54.14,2.6,16.43,5.37,32.93,3.6,49.56-1.36,12.8-5.46,20.45-17.68,23.61-1.83.47-3.47,1.72-5.2,2.61h-5.99Z"/>
      <path class="cls-1" d="M114.51,374.56c-1.44,7.25-2.26,13.51-3.97,19.51-2.18,7.65-9.85,12.86-17.74,12.91-7.75.05-13.88-3.71-16.48-12.66-2.45-8.42-3.34-17.7-2.86-26.48.82-14.82,4.3-29.24,12.06-42.26.59-1,1.25-1.96,1.95-2.9,4.32-5.82,9.34-5.81,12.83.67,3.13,5.8,6.08,11.93,7.69,18.27,2.8,11.05,4.5,22.38,6.53,32.92Z"/>
      <path class="cls-1" d="M314.88,363.36c.44,10.48-8.8,17.73-17.31,19.69-4.86,1.12-11.1-2.54-13.66-7.36-3.47-6.54-2.49-12.97,1.23-18.96,3.78-6.08,9.92-7.59,16.52-6.85,9.65,1.09,13.18,4.93,13.22,13.48Z"/>
    </g>
  </g>
</svg>